<svg version="1" xmlns="http://www.w3.org/2000/svg" width="122" height="80"><g fill="none" stroke="#010101"><path stroke-width="2" d="M1 30h30v40H1zm45 0h30v40H46zm45 0h30v40H91z"/><path d="M99.8 9.5h13.3c2.8 0 3.3.3 3.3 3.1v3.3c0 2.7-.6 3.6-3.3 3.6H99.8c-2.8 0-3.3-.9-3.3-3.6v-3.3c0-2.8.6-3.1 3.3-3.1zm6.7.5v10"/><path d="M103.5 16.2l-3.5-2 3.5-2zm6-4l3.5 2-3.5 2z"/><path stroke-linecap="round" stroke-linejoin="round" d="M92.2 14.1c-10.6.5-20.5 4.7-30 9m3.1-5.3c-.3.7-4.3 6-4.3 6.1.1.1 8.2-.5 9.2-.7"/></g></svg>
